<svg width="39" height="34" viewBox="0 0 39 34" fill="none" xmlns="http://www.w3.org/2000/svg">
<path d="M36.7168 14.9261L36.7041 14.9205L2.89046 0.895618C2.60605 0.776578 2.29657 0.729892 1.9897 0.759736C1.68283 0.78958 1.38814 0.895024 1.132 1.06663C0.861378 1.24396 0.639087 1.48578 0.485127 1.77035C0.331167 2.05491 0.250368 2.37328 0.25 2.69683V11.6665C0.250151 12.1088 0.404595 12.5372 0.686713 12.8778C0.96883 13.2185 1.36095 13.45 1.79548 13.5326L20.2375 16.9426C20.31 16.9564 20.3754 16.995 20.4224 17.0518C20.4695 17.1086 20.4952 17.18 20.4952 17.2538C20.4952 17.3275 20.4695 17.399 20.4224 17.4558C20.3754 17.5126 20.31 17.5512 20.2375 17.5649L1.79627 20.975C1.36186 21.0573 0.969766 21.2886 0.687522 21.6289C0.405278 21.9692 0.250554 22.3974 0.25 22.8395V31.8107C0.24979 32.1197 0.326288 32.4238 0.472628 32.6959C0.618969 32.968 0.830573 33.1995 1.08845 33.3697C1.39866 33.5758 1.7627 33.6859 2.13514 33.6864C2.39405 33.6861 2.65031 33.6342 2.88887 33.5335L36.7017 19.5886L36.7168 19.5815C37.1719 19.3859 37.5597 19.0611 37.8323 18.6474C38.1048 18.2337 38.25 17.7492 38.25 17.2538C38.25 16.7584 38.1048 16.2738 37.8323 15.8601C37.5597 15.4464 37.1719 15.1217 36.7168 14.9261Z" fill="black"/>
</svg>
