<svg width="18" height="24" viewBox="0 0 18 24" fill="none" xmlns="http://www.w3.org/2000/svg">
<path d="M8.91428 19.5429C8.91428 18.6613 9.17569 17.7996 9.66545 17.0666C10.1552 16.3336 10.8513 15.7623 11.6658 15.425C12.4802 15.0876 13.3764 14.9994 14.241 15.1714C15.1056 15.3433 15.8998 15.7678 16.5231 16.3912C17.1464 17.0145 17.5709 17.8087 17.7429 18.6733C17.9149 19.5379 17.8266 20.4341 17.4893 21.2485C17.1519 22.063 16.5807 22.7591 15.8477 23.2488C15.1147 23.7386 14.253 24 13.3714 24C12.1893 24 11.0556 23.5304 10.2198 22.6945C9.38387 21.8587 8.91428 20.725 8.91428 19.5429ZM0 12C0 11.1185 0.261407 10.2567 0.751164 9.52374C1.24092 8.79077 1.93703 8.21949 2.75147 7.88214C3.5659 7.54479 4.46209 7.45652 5.32669 7.6285C6.19129 7.80048 6.98548 8.22498 7.60882 8.84832C8.23216 9.47167 8.65666 10.2659 8.82864 11.1305C9.00062 11.9951 8.91236 12.8912 8.575 13.7057C8.23765 14.5201 7.66637 15.2162 6.9334 15.706C6.20042 16.1957 5.33868 16.4571 4.45714 16.4571C3.27503 16.4571 2.14134 15.9876 1.30547 15.1517C0.46959 14.3158 0 13.1821 0 12H0ZM8.91428 4.45714C8.91428 3.5756 9.17569 2.71386 9.66545 1.98089C10.1552 1.24792 10.8513 0.676632 11.6658 0.339282C12.4802 0.00193121 13.3764 -0.0863351 14.241 0.0856447C15.1056 0.257625 15.8998 0.682126 16.5231 1.30547C17.1464 1.92881 17.5709 2.723 17.7429 3.5876C17.9149 4.4522 17.8266 5.34838 17.4893 6.16282C17.1519 6.97725 16.5807 7.67337 15.8477 8.16312C15.1147 8.65288 14.253 8.91429 13.3714 8.91429C12.1893 8.91429 11.0556 8.4447 10.2198 7.60882C9.38387 6.77294 8.91428 5.63925 8.91428 4.45714Z" fill="black"/>
</svg>
