<svg width="529" height="381" viewBox="0 0 529 381" fill="none" xmlns="http://www.w3.org/2000/svg">
<path d="M311.057 375.869C303.286 372.595 296.227 367.847 290.27 361.891C284.295 355.949 279.534 348.908 276.249 341.158C272.838 333.125 271.087 324.489 271.101 315.765C271.083 307.042 272.831 298.405 276.241 290.371C279.528 282.62 284.292 275.58 290.27 269.64C296.227 263.682 303.289 258.935 311.062 255.662C319.119 252.261 327.781 250.518 336.529 250.537C345.278 250.518 353.94 252.261 361.996 255.662C369.77 258.934 376.832 263.681 382.789 269.64C388.764 275.581 393.526 282.623 396.81 290.374C400.218 298.407 401.966 307.045 401.947 315.768C401.965 324.492 400.218 333.129 396.81 341.163C393.525 348.913 388.764 355.955 382.789 361.897C376.83 367.853 369.769 372.601 361.996 375.875C353.94 379.274 345.278 381.018 336.529 381C327.779 381.017 319.115 379.272 311.057 375.869ZM306.7 315.023C306.69 318.832 307.437 322.605 308.899 326.124C310.361 329.643 312.508 332.838 315.216 335.524C317.909 338.225 321.113 340.366 324.642 341.824C328.17 343.282 331.954 344.027 335.774 344.016C339.593 344.027 343.377 343.282 346.907 341.824C350.436 340.366 353.64 338.225 356.333 335.524C359.041 332.838 361.188 329.643 362.649 326.124C364.111 322.605 364.858 318.832 364.847 315.023C364.858 311.214 364.111 307.441 362.649 303.922C361.188 300.403 359.041 297.208 356.333 294.521C353.64 291.821 350.435 289.68 346.906 288.223C343.377 286.766 339.593 286.021 335.774 286.032C328.066 286.041 320.676 289.099 315.226 294.533C309.776 299.968 306.709 307.337 306.7 315.023ZM406.046 371.587V250.72H435.793L492.881 316.118V250.72H529V371.489H493.163L440.038 309.433V371.59L406.046 371.587ZM314.535 231.146C306.761 227.872 299.699 223.125 293.739 217.168C287.766 211.226 283.006 204.185 279.721 196.435C276.312 188.401 274.564 179.764 274.581 171.04C274.564 162.317 276.312 153.679 279.721 145.645C283.005 137.895 287.766 130.854 293.739 124.912C299.699 118.955 306.761 114.207 314.535 110.934C322.591 107.534 331.253 105.791 340.002 105.809C348.75 105.791 357.412 107.535 365.469 110.934C373.241 114.208 380.302 118.955 386.261 124.912C392.235 130.854 396.995 137.895 400.279 145.645C403.688 153.679 405.437 162.317 405.419 171.04C405.436 179.764 403.688 188.401 400.279 196.435C396.995 204.185 392.234 211.226 386.261 217.168C380.302 223.124 373.241 227.871 365.469 231.146C357.412 234.546 348.75 236.289 340.002 236.272C331.253 236.289 322.591 234.546 314.535 231.146ZM318.694 149.799C315.986 152.485 313.839 155.68 312.377 159.199C310.915 162.718 310.167 166.491 310.178 170.3C310.167 174.109 310.915 177.882 312.377 181.402C313.839 184.921 315.986 188.116 318.694 190.802C321.388 193.502 324.592 195.643 328.121 197.1C331.651 198.557 335.434 199.302 339.254 199.291C343.074 199.302 346.857 198.557 350.387 197.1C353.916 195.642 357.12 193.502 359.814 190.802C362.522 188.115 364.668 184.92 366.13 181.401C367.591 177.882 368.338 174.109 368.328 170.3C368.319 162.614 365.253 155.245 359.803 149.81C354.352 144.375 346.962 141.318 339.254 141.309C335.435 141.299 331.651 142.044 328.123 143.501C324.594 144.958 321.388 147.099 318.694 149.799ZM180.353 231.146C172.581 227.872 165.52 223.125 159.561 217.168C153.586 211.227 148.825 204.185 145.54 196.435C142.131 188.401 140.383 179.764 140.4 171.04C140.383 162.317 142.131 153.679 145.54 145.645C148.824 137.895 153.586 130.853 159.561 124.912C165.519 118.955 172.581 114.208 180.353 110.934C188.41 107.535 197.072 105.791 205.82 105.809C214.569 105.791 223.231 107.534 231.287 110.934C239.06 114.208 246.122 118.955 252.08 124.912C258.055 130.853 262.816 137.894 266.098 145.645C269.508 153.679 271.257 162.317 271.238 171.04C271.256 179.764 269.508 188.401 266.098 196.435C262.815 204.186 258.055 211.227 252.08 217.168C246.121 223.125 239.06 227.872 231.287 231.146C223.231 234.546 214.569 236.29 205.82 236.272C197.072 236.289 188.41 234.546 180.353 231.146ZM175.999 170.3C176.005 174.146 176.802 177.949 178.34 181.475C179.879 185.001 182.126 188.176 184.943 190.802C190.77 196.301 198.504 199.343 206.527 199.291C214.551 199.343 222.285 196.302 228.114 190.802C230.93 188.175 233.176 185.001 234.713 181.474C236.251 177.948 237.046 174.145 237.052 170.3C237.046 166.455 236.251 162.652 234.713 159.126C233.176 155.6 230.93 152.425 228.114 149.799C222.285 144.299 214.551 141.258 206.527 141.309C198.626 141.127 190.976 144.077 185.253 149.512C179.53 154.947 176.202 162.422 175.999 170.3ZM101.896 232.831V164.702L29.7472 232.831H0V0H33.9998V176.843L102.186 112.056H138.015V232.826L101.896 232.831ZM407.624 227.733V191.998L469.856 139.024H407.522V105.129H528.737V134.791L463.153 191.714H528.737V227.733H407.624Z" fill="url(#paint0_linear_534_193)"/>
<defs>
<linearGradient id="paint0_linear_534_193" x1="264.5" y1="0" x2="264.5" y2="381" gradientUnits="userSpaceOnUse">
<stop stop-color="#00FFF0"/>
<stop offset="1" stop-color="#00FFD1"/>
</linearGradient>
</defs>
</svg>
