<svg width="93" height="67" viewBox="0 0 93 67" fill="none" xmlns="http://www.w3.org/2000/svg">
<path d="M54.6848 66.0977C53.3187 65.5219 52.0776 64.6871 51.0304 63.6396C49.9801 62.5948 49.143 61.3565 48.5655 59.9936C47.9658 58.581 47.6579 57.0623 47.6605 55.5283C47.6573 53.9943 47.9647 52.4753 48.5641 51.0626C49.1419 49.6996 49.9795 48.4615 51.0304 47.417C52.0778 46.3693 53.3192 45.5344 54.6858 44.9589C56.1021 44.3608 57.625 44.0543 59.163 44.0576C60.701 44.0543 62.2239 44.3608 63.6402 44.9589C65.0068 45.5343 66.2483 46.3692 67.2956 47.417C68.346 48.4618 69.1831 49.7001 69.7605 51.0631C70.3597 52.4758 70.6669 53.9948 70.6636 55.5288C70.6668 57.0628 70.3596 58.5817 69.7605 59.9945C69.183 61.3575 68.346 62.5957 67.2956 63.6406C66.2481 64.6881 65.0066 65.5229 63.6402 66.0987C62.2238 66.6965 60.701 67.0031 59.163 67C57.6246 67.0029 56.1015 66.6961 54.6848 66.0977ZM53.9189 55.3977C53.9171 56.0675 54.0485 56.731 54.3055 57.3499C54.5625 57.9687 54.94 58.5306 55.4161 59.0029C55.8896 59.4779 56.4528 59.8544 57.0731 60.1108C57.6935 60.3671 58.3587 60.4981 59.0301 60.4963C59.7017 60.4982 60.3669 60.3672 60.9874 60.1108C61.6078 59.8545 62.1711 59.4779 62.6446 59.0029C63.1207 58.5306 63.4981 57.9687 63.755 57.3498C64.0119 56.731 64.1432 56.0675 64.1414 55.3977C64.1432 54.7279 64.0119 54.0644 63.755 53.4456C63.4981 52.8267 63.1207 52.2649 62.6446 51.7925C62.1711 51.3176 61.6077 50.9411 60.9873 50.6849C60.3669 50.4286 59.7017 50.2976 59.0301 50.2996C57.6751 50.3012 56.376 50.8389 55.4178 51.7946C54.4596 52.7503 53.9206 54.0461 53.9189 55.3977ZM71.3843 65.3448V44.0898H76.614L86.6501 55.5903V44.0898H93V65.3275H86.6997L77.3601 54.4148V65.3453L71.3843 65.3448ZM55.2962 40.6478C53.9297 40.072 52.6881 39.2372 51.6404 38.1897C50.5903 37.1447 49.7534 35.9065 49.176 34.5437C48.5766 33.1309 48.2693 31.612 48.2723 30.0779C48.2693 28.5439 48.5766 27.025 49.176 25.6122C49.7533 24.2493 50.5902 23.0111 51.6404 21.9661C52.688 20.9185 53.9296 20.0837 55.2962 19.5081C56.7126 18.9102 58.2355 18.6037 59.7734 18.6068C61.3114 18.6037 62.8342 18.9103 64.2506 19.5081C65.6171 20.0839 66.8585 20.9186 67.906 21.9661C68.9562 23.0111 69.7931 24.2493 70.3704 25.6122C70.9698 27.025 71.2771 28.5439 71.274 30.0779C71.2771 31.612 70.9698 33.1309 70.3704 34.5437C69.793 35.9065 68.9561 37.1447 67.906 38.1897C66.8584 39.2371 65.617 40.0719 64.2506 40.6478C62.8342 41.2456 61.3114 41.5522 59.7734 41.5491C58.2355 41.5522 56.7126 41.2456 55.2962 40.6478ZM56.0275 26.3426C55.5514 26.8149 55.1739 27.3768 54.9169 27.9956C54.6599 28.6144 54.5285 29.278 54.5303 29.9478C54.5285 30.6176 54.6599 31.2812 54.9169 31.9C55.1739 32.5188 55.5514 33.0807 56.0275 33.553C56.5011 34.0279 57.0644 34.4043 57.6849 34.6606C58.3053 34.9168 58.9705 35.0478 59.642 35.0459C60.3135 35.0478 60.9787 34.9168 61.5991 34.6605C62.2196 34.4043 62.7829 34.0279 63.2565 33.553C63.7326 33.0807 64.11 32.5188 64.3669 31.9C64.6238 31.2811 64.7551 30.6176 64.7532 29.9478C64.7517 28.5962 64.2127 27.3003 63.2545 26.3446C62.2963 25.3888 60.9971 24.8512 59.642 24.8497C58.9706 24.8479 58.3055 24.9789 57.6851 25.2351C57.0648 25.4914 56.5011 25.8678 56.0275 26.3426ZM31.7067 40.6478C30.3403 40.072 29.0989 39.2372 28.0513 38.1897C27.001 37.1449 26.1639 35.9066 25.5865 34.5437C24.9871 33.1309 24.6798 31.612 24.6828 30.0779C24.6797 28.5439 24.9871 27.025 25.5865 25.6122C26.1638 24.2492 27.0009 23.0109 28.0513 21.9661C29.0988 20.9185 30.3402 20.0837 31.7067 19.5081C33.1231 18.9103 34.6459 18.6037 36.1839 18.6068C37.7219 18.6036 39.2447 18.9102 40.6611 19.5081C42.0276 20.0837 43.269 20.9185 44.3165 21.9661C45.3669 23.0109 46.2039 24.2491 46.7809 25.6122C47.3805 27.0249 47.6878 28.5439 47.6845 30.0779C47.6878 31.612 47.3805 33.131 46.7809 34.5437C46.2038 35.9067 45.3669 37.145 44.3165 38.1897C43.2689 39.2372 42.0275 40.072 40.6611 40.6478C39.2447 41.2457 37.7219 41.5522 36.1839 41.5491C34.6459 41.5522 33.1231 41.2456 31.7067 40.6478ZM30.9413 29.9478C30.9423 30.624 31.0824 31.2929 31.3528 31.913C31.6233 32.5331 32.0183 33.0912 32.5136 33.553C33.5381 34.5201 34.8976 35.055 36.3081 35.0459C37.7188 35.0551 39.0785 34.5202 40.1032 33.553C40.5982 33.0912 40.9931 32.5329 41.2634 31.9128C41.5336 31.2927 41.6736 30.624 41.6745 29.9478C41.6736 29.2717 41.5336 28.6029 41.2634 27.9828C40.9931 27.3627 40.5982 26.8044 40.1032 26.3426C39.0785 25.3755 37.7188 24.8406 36.3081 24.8497C34.9192 24.8177 33.5742 25.3364 32.5681 26.2921C31.562 27.2478 30.977 28.5625 30.9413 29.9478ZM17.9136 40.9441V28.9634L5.22966 40.9441H0V0H5.97729V31.0983L17.9646 19.7054H24.2635V40.9431L17.9136 40.9441ZM71.6616 40.0476V33.7634L82.6023 24.4477H71.6438V18.4872H92.9538V23.7035L81.4238 33.7134H92.9538V40.0476H71.6616Z" fill="#25252B"/>
</svg>
