<svg width="24" height="38" viewBox="0 0 24 38" fill="none" xmlns="http://www.w3.org/2000/svg">
<path opacity="0.5" d="M23.4274 27.5878C23.4274 30.4356 22.2927 32.8829 20.0234 34.9297C17.7541 36.9766 14.9842 38 11.7137 38C8.44321 38 5.6733 36.9766 3.40398 34.9297C1.13466 32.8829 -3.30651e-07 30.4356 -4.55131e-07 27.5878L-1.32649e-06 7.65339C-1.41985e-06 5.51756 0.834308 3.70804 2.50293 2.22482C4.17154 0.741607 6.17389 -2.69869e-07 8.50995 -3.71982e-07C10.846 -4.74095e-07 12.8484 0.741607 14.517 2.22482C16.1856 3.70804 17.0199 5.51756 17.0199 7.65339L17.0199 23.7611C17.0199 25.0664 16.5026 26.1788 15.4681 27.0984C14.4335 28.018 13.1821 28.4778 11.7137 28.4778C10.2453 28.4778 8.99385 28.018 7.95931 27.0984C6.92477 26.1788 6.40749 25.0664 6.40749 23.7611L6.40749 9.52225L9.61124 9.52225L9.61124 23.7611C9.61124 24.2951 9.81148 24.74 10.2119 25.096C10.6124 25.452 11.113 25.63 11.7137 25.63C12.3144 25.63 12.815 25.452 13.2155 25.096C13.6159 24.74 13.8162 24.2951 13.8162 23.7611L13.8162 7.65339C13.8162 6.34816 13.2989 5.22092 12.2643 4.27166C11.2298 3.3224 9.97834 2.84777 8.50995 2.84777C7.04157 2.84777 5.7901 3.3224 4.75556 4.27166C3.72102 5.22092 3.20375 6.34817 3.20375 7.65339L3.20375 27.5878C3.20375 29.6643 4.03806 31.4442 5.70667 32.9274C7.37529 34.4106 9.37763 35.1522 11.7137 35.1522C14.0498 35.1522 16.0521 34.4106 17.7207 32.9274C19.3893 31.4442 20.2237 29.6643 20.2237 27.5878L20.2237 9.52225L23.4274 9.52225L23.4274 27.5878Z" fill="#828E9B"/>
</svg>
